<svg width="600" height="400" viewBox="0 0 600 400" fill="none" xmlns="http://www.w3.org/2000/svg">
<path d="M200 200V300H300H400V200V100H300H200V200ZM383.333 186.667C381.667 245 378.333 253.333 365 228.333C350 203.333 343.333 201.667 321.667 218.333C301.667 236.667 293.333 235 280 210C266.667 188.333 258.333 185 240 201.667C220 216.667 216.667 211.667 216.667 168.333C216.667 116.667 218.333 116.667 300 116.667H383.333V186.667Z" fill="white"/>
<path d="M333.334 150C333.334 158.333 341.668 166.666 350.001 166.666C360.001 166.666 366.668 158.333 366.668 150C366.668 140 360.001 133.333 350.001 133.333C341.668 133.333 333.334 140 333.334 150Z" fill="white"/>
</svg>
